<?xml version="1.0" encoding="UTF-8" standalone="no"?>
<svg
   xmlns:dc="http://purl.org/dc/elements/1.1/"
   xmlns:cc="http://creativecommons.org/ns#"
   xmlns:rdf="http://www.w3.org/1999/02/22-rdf-syntax-ns#"
   xmlns:svg="http://www.w3.org/2000/svg"
   xmlns="http://www.w3.org/2000/svg"
   xmlns:sodipodi="http://sodipodi.sourceforge.net/DTD/sodipodi-0.dtd"
   xmlns:inkscape="http://www.inkscape.org/namespaces/inkscape"
   width="16"
   height="16"
   viewBox="0 0 16 16"
   version="1.1"
   id="svg4"
   sodipodi:docname="issues2.svg"
   inkscape:version="0.92.5 (2060ec1f9f, 2020-04-08)">
  <sodipodi:namedview
     pagecolor="#ffffff"
     bordercolor="#666666"
     borderopacity="1"
     objecttolerance="10"
     gridtolerance="10"
     guidetolerance="10"
     inkscape:pageopacity="0"
     inkscape:pageshadow="2"
     inkscape:window-width="1920"
     inkscape:window-height="1051"
     id="namedview7"
     showgrid="false"
     inkscape:zoom="14.75"
     inkscape:cx="0.44067797"
     inkscape:cy="8"
     inkscape:window-x="0"
     inkscape:window-y="-37"
     inkscape:window-maximized="1"
     inkscape:current-layer="svg4" />
  <metadata
     id="metadata10">
    <rdf:RDF>
      <cc:Work
         rdf:about="">
        <dc:format>image/svg+xml</dc:format>
        <dc:type
           rdf:resource="http://purl.org/dc/dcmitype/StillImage" />
      </cc:Work>
    </rdf:RDF>
  </metadata>
  <defs
     id="defs8" />
  <path
     d="m 3.0410205,1.038706 c -1.1045695,0 -2.0000001,0.8954306 -2,2.0000001 v 9.9999999 c 0,1.104569 0.8954305,2 2,2 h 6 c 0.8129998,0 1.4577025,-0.530891 1.8457025,-1.212891 0.155,-0.272 2.599859,-4.5017027 3.880859,-6.7207027 0.552803,-0.9562537 0.225765,-2.1795849 -0.730469,-2.7324219 L 10.998051,2.6187842 C 10.799985,1.6964629 9.9843689,1.0379462 9.0410205,1.038706 Z M 3.2578174,2.7535498 H 8.8007861 C 9.1168874,2.7534346 9.373167,3.0097141 9.3730518,3.3258154 V 12.96644 c 1.154e-4,0.316101 -0.2561643,0.572381 -0.5722657,0.572266 H 3.2578174 C 2.941716,13.538821 2.6854364,13.282541 2.6855518,12.96644 V 3.3258154 C 2.6854366,3.0097141 2.9417161,2.7534346 3.2578174,2.7535498 Z m 7.7832026,2.1992188 1.996093,1.1523437 -2.06389,3.9974507 z"
     style="stroke:#fffbff;stroke-width:2;stroke-linecap:round;stroke-linejoin:round;stroke-miterlimit:4;stroke-dasharray:none;stroke-opacity:1;paint-order:stroke fill markers"
     inkscape:connector-curvature="0"
     id="path4"
     sodipodi:nodetypes="ssssscccccsccccccccccccc" />
</svg>
